<?xml version="1.0" encoding="UTF-8" standalone="no"?>
<!-- Created with Inkscape (http://www.inkscape.org/) -->

<svg
   xmlns:dc="http://purl.org/dc/elements/1.1/"
   xmlns:cc="http://creativecommons.org/ns#"
   xmlns:rdf="http://www.w3.org/1999/02/22-rdf-syntax-ns#"
   xmlns:svg="http://www.w3.org/2000/svg"
   xmlns="http://www.w3.org/2000/svg"
   xmlns:xlink="http://www.w3.org/1999/xlink"
   xmlns:sodipodi="http://sodipodi.sourceforge.net/DTD/sodipodi-0.dtd"
   xmlns:inkscape="http://www.inkscape.org/namespaces/inkscape"
   width="612.45813"
   height="171.2065"
   id="svg2"
   version="1.1"
   inkscape:version="0.48.4 r9939"
   sodipodi:docname="semwb-progress.svg">
  <defs
     id="defs4">
    <marker
       inkscape:stockid="EmptyTriangleOutM"
       orient="auto"
       refY="0"
       refX="0"
       id="EmptyTriangleOutM"
       style="overflow:visible">
      <path
         id="path3978"
         d="m 5.77,0 -8.65,5 0,-10 8.65,5 z"
         style="fill:#ffffff;fill-rule:evenodd;stroke:#000000;stroke-width:1pt"
         transform="matrix(0.4,0,0,0.4,-1.8,0)"
         inkscape:connector-curvature="0" />
    </marker>
    <marker
       inkscape:stockid="Arrow2Mend"
       orient="auto"
       refY="0"
       refX="0"
       id="Arrow2Mend"
       style="overflow:visible">
      <path
         id="path3842"
         style="fill-rule:evenodd;stroke-width:0.625;stroke-linejoin:round"
         d="M 8.7185878,4.0337352 -2.2072895,0.01601326 8.7185884,-4.0017078 c -1.7454984,2.3720609 -1.7354408,5.6174519 -6e-7,8.035443 z"
         transform="scale(-0.6,-0.6)"
         inkscape:connector-curvature="0" />
    </marker>
    <inkscape:path-effect
       effect="spiro"
       id="path-effect3805"
       is_visible="true" />
    <inkscape:path-effect
       effect="spiro"
       id="path-effect3801"
       is_visible="true" />
    <inkscape:path-effect
       effect="spiro"
       id="path-effect3797"
       is_visible="true" />
    <inkscape:path-effect
       effect="spiro"
       id="path-effect3793"
       is_visible="true" />
    <inkscape:path-effect
       effect="spiro"
       id="path-effect3789"
       is_visible="true" />
    <inkscape:path-effect
       effect="spiro"
       id="path-effect3785"
       is_visible="true" />
    <inkscape:path-effect
       effect="spiro"
       id="path-effect3781"
       is_visible="true" />
    <inkscape:path-effect
       effect="spiro"
       id="path-effect3777"
       is_visible="true" />
    <inkscape:path-effect
       effect="spiro"
       id="path-effect3773"
       is_visible="true" />
    <linearGradient
       inkscape:collect="always"
       id="linearGradient3066">
      <stop
         style="stop-color:#000000;stop-opacity:1;"
         offset="0"
         id="stop3068" />
      <stop
         style="stop-color:#000000;stop-opacity:0;"
         offset="1"
         id="stop3070" />
    </linearGradient>
    <linearGradient
       inkscape:collect="always"
       xlink:href="#linearGradient3066"
       id="linearGradient3058"
       x1="400.07144"
       y1="106.01564"
       x2="517.78571"
       y2="106.01564"
       gradientUnits="userSpaceOnUse" />
  </defs>
  <sodipodi:namedview
     id="base"
     pagecolor="#000000"
     bordercolor="#666666"
     borderopacity="1.0"
     inkscape:pageopacity="0.14509804"
     inkscape:pageshadow="2"
     inkscape:zoom="1.4"
     inkscape:cx="378.4801"
     inkscape:cy="124.1766"
     inkscape:document-units="px"
     inkscape:current-layer="layer1"
     showgrid="false"
     inkscape:snap-global="true"
     inkscape:window-width="1680"
     inkscape:window-height="968"
     inkscape:window-x="-2"
     inkscape:window-y="511"
     inkscape:window-maximized="1"
     fit-margin-top="1"
     fit-margin-left="1"
     fit-margin-right="1"
     fit-margin-bottom="1" />
  <metadata
     id="metadata7">
    <rdf:RDF>
      <cc:Work
         rdf:about="">
        <dc:format>image/svg+xml</dc:format>
        <dc:type
           rdf:resource="http://purl.org/dc/dcmitype/StillImage" />
        <dc:title></dc:title>
      </cc:Work>
    </rdf:RDF>
  </metadata>
  <g
     inkscape:label="Layer 1"
     inkscape:groupmode="layer"
     id="layer1"
     transform="translate(-138.28192,31.378804)">
    <path
       sodipodi:type="arc"
       style="fill:#ffffff;fill-opacity:0.99004977;stroke:#ffffff;stroke-width:2;stroke-miterlimit:4;stroke-opacity:1;stroke-dasharray:none;stroke-dashoffset:0"
       id="path3050"
       sodipodi:cx="161.42857"
       sodipodi:cy="108.79076"
       sodipodi:rx="6.4285712"
       sodipodi:ry="6.4285712"
       d="m 167.85714,108.79076 c 0,3.5504 -2.87816,6.42857 -6.42857,6.42857 -3.5504,0 -6.42857,-2.87817 -6.42857,-6.42857 0,-3.55041 2.87817,-6.42857 6.42857,-6.42857 3.55041,0 6.42857,2.87816 6.42857,6.42857 z"
       transform="matrix(1.8,0,0,1.8,-121.758,-126.24109)" />
    <path
       style="fill:none;stroke:#ffffff;stroke-width:1.20000005px;stroke-linecap:butt;stroke-linejoin:miter;stroke-opacity:1"
       d="m 140.73907,64.345771 -0.85715,1.714296 24,1.714284 -11.14285,-16.285717 0,0"
       id="path3145"
       inkscape:connector-curvature="0"
       sodipodi:nodetypes="ccccc" />
    <path
       style="fill:none;stroke:#ffffff;stroke-width:1.79999995px;stroke-linecap:butt;stroke-linejoin:miter;stroke-opacity:1"
       d="m 176.52771,69.582261 -10.28572,-39.857134 0,0"
       id="path3147"
       inkscape:connector-curvature="0"
       sodipodi:nodetypes="ccc" />
    <path
       style="fill:none;stroke:#ffffff;stroke-width:1.79999995px;stroke-linecap:butt;stroke-linejoin:miter;stroke-opacity:1"
       d="m 176.52771,69.582261 7.71429,-21.857134 0,0"
       id="path3151"
       inkscape:connector-curvature="0"
       sodipodi:nodetypes="ccc" />
    <path
       style="fill:none;stroke:#ffffff;stroke-width:1.79999995px;stroke-linecap:butt;stroke-linejoin:miter;stroke-opacity:1"
       d="m 175.24199,81.153693 10.28572,20.571447 0,0"
       id="path3153"
       inkscape:connector-curvature="0"
       sodipodi:nodetypes="ccc" />
    <path
       style="fill:#ffffff;stroke:#ffffff;stroke-width:1.79999995px;stroke-linecap:butt;stroke-linejoin:miter;stroke-opacity:1"
       d="m 166.24199,81.153693 -14.14285,28.285717 0,0"
       id="path3155"
       inkscape:connector-curvature="0"
       sodipodi:nodetypes="ccc" />
    <path
       style="fill:none;stroke:#ffffff;stroke-width:1.79999995px;stroke-linecap:butt;stroke-linejoin:miter;stroke-opacity:1"
       d="m 552.82185,62.469297 2.72742,-35.456365"
       id="path3779"
       inkscape:path-effect="#path-effect3781"
       inkscape:original-d="m 552.82185,62.469297 c 2.72742,-35.456365 2.72742,-35.456365 2.72742,-35.456365"
       inkscape:connector-curvature="0"
       sodipodi:nodetypes="cc" />
    <path
       style="fill:none;stroke:#ffffff;stroke-width:1.79999995px;stroke-linecap:butt;stroke-linejoin:miter;stroke-opacity:1"
       d="m 258.26138,37.922579 -23.63756,31.81981"
       id="path3783"
       inkscape:path-effect="#path-effect3785"
       inkscape:original-d="m 258.26138,37.922579 c -23.63756,31.81981 -23.63756,31.81981 -23.63756,31.81981"
       inkscape:connector-curvature="0"
       sodipodi:nodetypes="cc" />
    <path
       style="fill:none;stroke:#ffffff;stroke-width:1.79999995px;stroke-linecap:butt;stroke-linejoin:miter;stroke-opacity:1"
       d="m 180.07557,69.742389 99.09598,52.729961 63.63961,15.45534 0,0"
       id="path3787"
       inkscape:path-effect="#path-effect3789"
       inkscape:original-d="m 180.07557,69.742389 c 86.36805,26.364981 99.09598,52.729961 99.09598,52.729961 l 63.63961,15.45534 0,0"
       inkscape:connector-curvature="0"
       sodipodi:nodetypes="cccc" />
    <path
       style="fill:none;stroke:#ffffff;stroke-width:1.79999995px;stroke-linecap:butt;stroke-linejoin:miter;stroke-opacity:1"
       d="m 393.72284,104.2896 38.18376,-6.36396 0,0 0,0"
       id="path3791"
       inkscape:path-effect="#path-effect3793"
       inkscape:original-d="m 393.72284,104.2896 38.18376,-6.36396 0,0 0,0"
       inkscape:connector-curvature="0"
       sodipodi:nodetypes="cccc" />
    <g
       style="overflow:visible"
       id="g5445"
       transform="translate(610.11707,-30.378804)">
      <g
         id="g5431"
         image-rendering="optimizeQuality"
         text-rendering="geometricPrecision"
         shape-rendering="geometricPrecision">
        <g
           id="g5433">
          <path
             id="path5435"
             d="M 77.088,17.833 C 123.979,38.963 134.203,0 134.203,0 c 0,0 -8.906,48.871 -50.02,68.834 -8.377,4.073 -13.579,6.256 -13.579,6.256 L 3.252,42.259 70.605,14.639 c -0.001,0 -1.626,-0.46 6.483,3.194 z"
             inkscape:connector-curvature="0"
             style="fill:#86ba0c" />
          <polygon
             id="polygon5437"
             points="0,56.906 62.756,88.805 62.756,160.953 0,126.977 "
             style="fill:#ef7c00" />
          <polygon
             id="polygon5439"
             points="139.623,56.906 76.871,88.805 76.871,160.953 139.623,126.977 "
             style="fill:#bd1789" />
        </g>
      </g>
    </g>
    <path
       style="fill:none;stroke:#ffffff;stroke-width:1.79999995px;stroke-linecap:butt;stroke-linejoin:miter;stroke-opacity:1"
       d="m 179.16643,67.924101 c 0.61004,-7.953575 3.24888,-15.743297 7.5984,-22.430085 4.34953,-6.686788 10.40077,-12.25686 17.42423,-16.038723 7.02347,-3.781862 15.00467,-5.767721 22.98145,-5.718172 7.97678,0.04955 15.9327,2.134402 22.90864,6.003223 3.09107,1.714294 5.98559,3.767317 9.09137,5.454822 7.84041,4.260036 16.98936,6.077422 25.86049,5.116683 8.87113,-0.960739 17.42441,-4.698406 24.14205,-10.571505 7.93067,-6.933629 13.13727,-16.52752 20.91017,-23.63757 9.73335,-8.9033147 22.86422,-13.291197 35.93711,-15.0537505 13.07289,-1.7625535 26.33129,-1.1347205 39.52129,-1.3107195 9.99206,-0.133328 20.05201,-0.725866 29.92802,0.7984912 9.876,1.5243569 19.75426,5.4102183 26.43848,12.8385678 4.01507,4.4620603 6.69689,9.999803 8.43914,15.743961 1.74225,5.744159 2.58542,11.719334 3.26872,17.682882 1.36659,11.927096 2.25805,24.380566 8.29316,34.758459 3.80838,6.548832 9.5805,11.938759 16.37449,15.29027 6.79399,3.351512 14.58361,4.651667 22.09779,3.688311 7.51418,-0.963356 14.72389,-4.186503 20.45269,-9.143499 5.7288,-4.956996 9.95456,-11.628702 11.98773,-18.92645 l 69.09444,-14.546208 0,0"
       id="path3771"
       inkscape:path-effect="#path-effect3773"
       inkscape:original-d="m 179.16643,67.924101 c 50.00256,-26.364973 61.82133,-43.638581 70.91272,-38.183757 9.09137,5.454822 -24.5467,-21.819296 9.09137,5.454822 33.63808,27.274131 46.366,9.091374 50.00254,-5.454822 3.63656,-14.546198 -62.73047,-43.638591 20.91017,-23.63757 83.64062,20.001021 79.09494,11.818785 75.4584,-16.36447 -3.63657,-28.183258 40.91116,-34.547219 56.3665,13.637059 15.45533,48.184275 -27.27411,90.004587 20.00102,68.185302 47.27514,-21.8193 70.9127,-9.091368 70.9127,-9.091368 l 69.09444,-14.546208 0,0"
       inkscape:connector-curvature="0"
       sodipodi:nodetypes="csssssssccc" />
    <path
       style="fill:none;stroke:#ffffff;stroke-width:1.79999995px;stroke-linecap:butt;stroke-linejoin:miter;stroke-opacity:1"
       d="m 257.35225,36.104306 c 14.86558,3.093759 28.99136,9.685794 40.91118,19.09189 14.5014,11.443262 25.65461,26.859423 40.91117,37.274614 16.54872,11.29731 37.49972,15.95309 57.27566,12.72793 11.5017,1.07659 23.01905,1.98586 34.5472,2.72741 38.42725,2.47185 76.97441,3.07889 115.46044,1.81828 l 72.73098,-29.092397 0,0"
       id="path3775"
       inkscape:path-effect="#path-effect3777"
       inkscape:original-d="m 257.35225,36.104306 c 0,0 39.0929,12.72792 40.91118,19.09189 1.81826,6.363957 -2.72742,37.274614 40.91117,37.274614 43.63858,0 57.27566,12.72793 57.27566,12.72793 l 34.5472,2.72741 115.46044,1.81828 72.73098,-29.092397 0,0"
       inkscape:connector-curvature="0"
       sodipodi:nodetypes="cssccccc" />
  </g>
</svg>
