<?xml version="1.0" encoding="UTF-8" standalone="no"?>
<!-- Created with Inkscape (http://www.inkscape.org/) -->

<svg
   xmlns:dc="http://purl.org/dc/elements/1.1/"
   xmlns:cc="http://creativecommons.org/ns#"
   xmlns:rdf="http://www.w3.org/1999/02/22-rdf-syntax-ns#"
   xmlns:svg="http://www.w3.org/2000/svg"
   xmlns="http://www.w3.org/2000/svg"
   xmlns:sodipodi="http://sodipodi.sourceforge.net/DTD/sodipodi-0.dtd"
   xmlns:inkscape="http://www.inkscape.org/namespaces/inkscape"
   width="674.4754"
   height="253.01276"
   id="svg4995"
   version="1.1"
   inkscape:version="0.48.4 r9939"
   sodipodi:docname="semweb-current.svg">
  <defs
     id="defs4997">
    <inkscape:path-effect
       effect="spiro"
       id="path-effect5273"
       is_visible="true" />
    <inkscape:path-effect
       effect="spiro"
       id="path-effect5269"
       is_visible="true" />
    <inkscape:path-effect
       effect="spiro"
       id="path-effect5265"
       is_visible="true" />
    <inkscape:path-effect
       effect="spiro"
       id="path-effect5261"
       is_visible="true" />
    <inkscape:path-effect
       effect="spiro"
       id="path-effect5257"
       is_visible="true" />
    <inkscape:path-effect
       effect="spiro"
       id="path-effect5253"
       is_visible="true" />
    <inkscape:path-effect
       effect="spiro"
       id="path-effect5249"
       is_visible="true" />
    <inkscape:path-effect
       effect="spiro"
       id="path-effect5245"
       is_visible="true" />
    <inkscape:path-effect
       effect="spiro"
       id="path-effect5241"
       is_visible="true" />
    <inkscape:path-effect
       effect="spiro"
       id="path-effect5214"
       is_visible="true" />
    <inkscape:path-effect
       effect="spiro"
       id="path-effect5210"
       is_visible="true" />
    <inkscape:path-effect
       effect="spiro"
       id="path-effect5202"
       is_visible="true" />
    <inkscape:path-effect
       effect="spiro"
       id="path-effect5198"
       is_visible="true" />
    <inkscape:path-effect
       effect="spiro"
       id="path-effect5190"
       is_visible="true" />
    <inkscape:path-effect
       effect="spiro"
       id="path-effect5186"
       is_visible="true" />
    <inkscape:path-effect
       effect="spiro"
       id="path-effect5182"
       is_visible="true" />
    <inkscape:path-effect
       effect="spiro"
       id="path-effect5178"
       is_visible="true" />
    <inkscape:path-effect
       effect="spiro"
       id="path-effect5174"
       is_visible="true" />
  </defs>
  <sodipodi:namedview
     id="base"
     pagecolor="#000000"
     bordercolor="#666666"
     borderopacity="1.0"
     inkscape:pageopacity="0.12941176"
     inkscape:pageshadow="2"
     inkscape:zoom="1.979899"
     inkscape:cx="370.53408"
     inkscape:cy="122.3041"
     inkscape:document-units="px"
     inkscape:current-layer="layer1"
     showgrid="false"
     inkscape:window-width="1680"
     inkscape:window-height="968"
     inkscape:window-x="-2"
     inkscape:window-y="511"
     inkscape:window-maximized="1"
     fit-margin-top="1"
     fit-margin-left="1"
     fit-margin-right="1"
     fit-margin-bottom="1" />
  <metadata
     id="metadata5000">
    <rdf:RDF>
      <cc:Work
         rdf:about="">
        <dc:format>image/svg+xml</dc:format>
        <dc:type
           rdf:resource="http://purl.org/dc/dcmitype/StillImage" />
        <dc:title />
      </cc:Work>
    </rdf:RDF>
  </metadata>
  <g
     inkscape:label="Layer 1"
     inkscape:groupmode="layer"
     id="layer1"
     transform="translate(-10.621831,0.70661765)">
    <g
       style="overflow:visible"
       id="g5161"
       transform="translate(544.47426,51.885729)">
      <g
         id="g5147"
         image-rendering="optimizeQuality"
         text-rendering="geometricPrecision"
         shape-rendering="geometricPrecision">
        <g
           id="g5149">
          <path
             id="path5151"
             d="M 77.088,17.833 C 123.979,38.963 134.203,0 134.203,0 c 0,0 -8.906,48.871 -50.02,68.834 -8.377,4.073 -13.579,6.256 -13.579,6.256 L 3.252,42.259 70.605,14.639 c -0.001,0 -1.626,-0.46 6.483,3.194 z"
             inkscape:connector-curvature="0"
             style="fill:#86ba0c" />
          <polygon
             id="polygon5153"
             points="0,56.906 62.756,88.805 62.756,160.953 0,126.977 "
             style="fill:#ef7c00" />
          <polygon
             id="polygon5155"
             points="139.623,56.906 76.871,88.805 76.871,160.953 139.623,126.977 "
             style="fill:#bd1789" />
        </g>
      </g>
    </g>
    <path
       sodipodi:type="arc"
       style="fill:#ffffff;stroke:#ffffff;stroke-width:1.96500003;stroke-miterlimit:4;stroke-opacity:1;stroke-dasharray:none;stroke-dashoffset:0"
       id="path5168"
       sodipodi:cx="103.79317"
       sodipodi:cy="127.31499"
       sodipodi:rx="7.323606"
       sodipodi:ry="7.323606"
       d="m 111.11677,127.31499 c 0,4.04471 -3.27889,7.3236 -7.3236,7.3236 -4.044719,0 -7.323609,-3.27889 -7.323609,-7.3236 0,-4.04472 3.27889,-7.32361 7.323609,-7.32361 4.04471,0 7.3236,3.27889 7.3236,7.32361 z"
       transform="translate(79.296975,12.121831)" />
    <path
       sodipodi:type="spiral"
       style="fill:none;stroke:#ffffff;stroke-width:1px;stroke-linecap:butt;stroke-linejoin:miter;stroke-opacity:1"
       id="path5170"
       sodipodi:cx="184.35284"
       sodipodi:cy="142.71982"
       sodipodi:expansion="1"
       sodipodi:revolution="3"
       sodipodi:radius="82.325882"
       sodipodi:argument="-18.960213"
       sodipodi:t0="0"
       d="m 184.35284,142.71982 c 4.10245,-0.45583 2.63845,5.30512 0.75762,6.81853 -5.09694,4.10124 -12.12612,-0.20731 -14.39468,-5.30331 -4.05792,-9.11554 2.56596,-19.05749 11.36423,-21.97081 12.91182,-4.27542 26.10788,4.92536 29.54695,17.42514 4.58375,16.66025 -7.28094,33.20379 -23.48606,37.1231 -20.39248,4.93205 -40.32219,-9.63372 -44.69924,-29.54698 -5.30118,-24.11764 11.9847,-47.453437 35.6079,-52.275381 27.83913,-5.682495 54.5927,14.334521 59.85152,41.668821 6.07152,31.55852 -16.68359,61.73731 -47.72973,67.42766 -35.27661,6.46573 -68.88569,-19.03213 -75.0038,-53.79066 -6.86361,-38.99381 21.38029,-76.036788 59.85157,-82.579941 42.71041,-7.264139 83.18995,23.728177 90.15608,65.912491" />
    <path
       style="fill:none;stroke:#ffffff;stroke-width:1px;stroke-linecap:butt;stroke-linejoin:miter;stroke-opacity:1"
       d="m 186.37314,142.21474 c 0.57447,-2.46296 1.86301,-4.755 3.66869,-6.52579 1.80568,-1.7708 4.12241,-3.01439 6.59611,-3.54071 2.4737,-0.52631 5.09603,-0.33359 7.4662,0.54873 2.37018,0.88232 4.4802,2.45125 6.00759,4.46701 1.96996,2.59984 2.93808,5.89487 2.9271,9.15674 -0.011,3.26187 -0.96851,6.48528 -2.52868,9.34986 -3.12033,5.72916 -8.47612,9.89951 -14.03548,13.3132 -21.16738,12.99768 -47.61275,17.09486 -71.72083,11.11168 -6.97013,1.29351 -14.30946,0.52797 -20.86261,-2.1761 -6.553159,-2.70408 -12.29666,-7.337 -16.326352,-13.16945 -4.029692,-5.83245 -6.331136,-12.84352 -6.542033,-19.92952 -0.210897,-7.086 1.669508,-14.22154 5.345198,-20.28332 5.231184,-8.62703 13.809477,-14.85002 18.926797,-23.54508 2.55866,-4.347525 4.20204,-9.393231 3.70811,-14.413566 -0.24697,-2.510168 -1.03372,-4.980115 -2.39257,-7.105074 -1.35886,-2.124958 -3.2994,-3.894061 -5.59513,-4.938832 -2.250701,-1.024278 -4.795189,-1.334751 -7.252041,-1.054248 -2.456851,0.280503 -4.828502,1.136504 -6.990139,2.337388 -4.323276,2.401769 -7.754509,6.106929 -11.011629,9.828538 -8.514322,9.728527 -16.433816,20.081854 -22.362705,31.570384 -5.928888,11.48853 -9.824763,24.19254 -9.962177,37.11999 -0.152015,14.30103 4.392569,28.57518 12.56968,40.30878 8.17711,11.7336 19.92145,20.90023 33.192892,26.23046 13.271439,5.33023 28.015879,6.83876 42.136619,4.57001 14.12074,-2.26875 27.58977,-8.28047 38.87495,-17.06609 16.78714,-13.06895 28.25357,-31.58618 40.73169,-48.81702 6.23906,-8.61542 12.83939,-17.02732 20.55924,-24.34546 7.71986,-7.31814 16.62063,-13.54262 26.59235,-17.24617 15.42414,-5.72861 32.78809,-5.0963 48.44688,-0.0442 15.65878,5.05207 29.71714,14.30759 41.96177,25.29804 8.61139,7.72936 16.53299,16.4384 26.5173,22.28756 4.99215,2.92458 10.48896,5.09464 16.23148,5.80051 5.74252,0.70587 11.74501,-0.11183 16.85022,-2.83426 3.95697,-2.11011 7.29661,-5.32343 9.68666,-9.11788 2.39004,-3.79445 3.83927,-8.15709 4.34637,-12.61277 1.01419,-8.91134 -1.75578,-18.00177 -6.62734,-25.53227 -4.87156,-7.53051 -11.73526,-13.60652 -19.19222,-18.58992 -7.45697,-4.983395 -15.53901,-8.943686 -23.56881,-12.939054 -30.95773,-15.403568 -61.75915,-31.64811 -94.86473,-41.631683 -33.10558,-9.983573 -69.19223,-13.3858 -102.11502,-2.815029 -15.59953,5.008659 -30.40164,13.24132 -41.52863,25.26721 -11.12698,12.025891 -18.33251,28.051523 -18.07037,44.433316 0.1782,11.13625 3.77316,22.11826 9.73373,31.52674 5.96056,9.40848 14.23204,17.26506 23.63232,23.23855 18.80056,11.94698 41.59741,16.22246 63.8711,16.49446 22.27369,0.272 44.39652,-3.19792 66.5449,-5.57297 22.14837,-2.37504 44.742,-3.63791 66.53273,0.98329 37.66335,7.98733 70.97222,34.36487 87.3782,69.19545"
       id="path5172"
       inkscape:path-effect="#path-effect5174"
       inkscape:original-d="m 186.37314,142.21474 c 18.18275,-11.11168 27.27412,-30.30458 23.73859,-5.05076 -3.53553,25.25381 36.36549,10.6066 -13.63706,31.8198 -50.00255,21.2132 -71.72083,11.11168 -71.72083,11.11168 0,0 -36.870569,-52.02286 -38.385797,-55.55839 -1.515229,-3.53553 3.535534,-45.961942 14.647207,-50.002552 11.11168,-4.04061 15.15229,-48.487322 -25.253809,11.111678 C 35.355339,145.2452 22.223356,133.62844 43.436559,154.33657 64.649763,175.0447 138.3909,213.43049 170.2107,208.37973 c 31.81981,-5.05076 67.17515,-75.76144 87.88328,-90.40865 20.70812,-14.64721 85.35789,18.68782 90.40865,25.25381 5.05076,6.56599 61.11423,36.36549 59.599,25.25381 C 406.5864,157.36703 415.1727,114.43554 372.74629,89.686806 330.31988,64.938069 204.05081,37.158874 175.76654,45.240094 c -28.28427,8.081221 -110.106625,54.043162 -59.599,69.700526 50.50763,15.65736 223.24372,53.53808 230.31478,66.67007 7.07107,13.13198 87.3782,69.19545 87.3782,69.19545"
       inkscape:connector-curvature="0" />
    <path
       style="fill:none;stroke:#ffffff;stroke-width:1px;stroke-linecap:butt;stroke-linejoin:miter;stroke-opacity:1"
       d="m 180.31223,136.6589 -12.12183,-16.16244 0,0 0,0"
       id="path5176"
       inkscape:path-effect="#path-effect5178"
       inkscape:original-d="M 180.31223,136.6589 C 169.70563,126.0523 168.1904,120.49646 168.1904,120.49646 l 0,0 0,0"
       inkscape:connector-curvature="0" />
    <path
       style="fill:none;stroke:#ffffff;stroke-width:1px;stroke-linecap:butt;stroke-linejoin:miter;stroke-opacity:1"
       d="m 188.39345,137.16398 11.11168,9.09137 4.54568,5.55584 m -22.72843,-12.12183 -9.59645,15.15229 0,0 m 11.11168,-20.20306 7.57614,-23.2335 m -5.05076,31.8198 6.56599,18.18275 m -14.14213,-20.70813 -44.44671,-2.52538 0,0 m 44.95178,-2.02031 -16.16244,-9.59645 m 25.25382,15.65737 7.57614,9.09137"
       id="path5180"
       inkscape:path-effect="#path-effect5182"
       inkscape:original-d="m 188.39345,137.16398 c 11.11168,9.09137 11.11168,9.09137 11.11168,9.09137 l 4.54568,5.55584 m -22.72843,-12.12183 -9.59645,15.15229 0,0 m 11.11168,-20.20306 c 5.55584,-21.2132 7.57614,-23.2335 7.57614,-23.2335 m -5.05076,31.8198 c 6.56599,18.18275 6.56599,18.18275 6.56599,18.18275 m -14.14213,-20.70813 c -52.52793,5.55584 -44.44671,-2.52538 -44.44671,-2.52538 l 0,0 m 44.95178,-2.02031 c -16.16244,-9.59645 -16.16244,-9.59645 -16.16244,-9.59645 m 25.25382,15.65737 c 7.07107,9.09137 7.57614,9.09137 7.57614,9.09137"
       inkscape:connector-curvature="0" />
    <path
       style="fill:none;stroke:#ffffff;stroke-width:1px;stroke-linecap:butt;stroke-linejoin:miter;stroke-opacity:1"
       d="m 185.36299,139.18428 97.47972,1.51523 18.18275,2.52538 c 0.60583,11.92099 6.03344,23.52771 14.7936,31.63551 8.76016,8.10781 20.7514,12.62279 32.68357,12.30613 8.23599,-0.21857 16.3168,-2.64777 23.69544,-6.31316 7.37864,-3.66538 14.0955,-8.54493 20.41222,-13.83439 12.63345,-10.57892 23.8769,-22.92919 37.71469,-31.87531 18.67293,-12.07203 41.67386,-17.28777 63.72755,-14.45098 22.05368,2.83678 42.98589,13.70367 57.99584,30.10835"
       id="path5184"
       inkscape:path-effect="#path-effect5186"
       inkscape:original-d="m 185.36299,139.18428 c 84.85282,19.1929 97.47972,1.51523 97.47972,1.51523 l 18.18275,2.52538 c 0,0 44.95179,44.44671 47.47717,43.94164 2.52538,-0.50508 60.10407,-38.89088 81.82235,-52.02286 21.71828,-13.13198 121.72339,15.65737 121.72339,15.65737"
       inkscape:connector-curvature="0" />
    <path
       style="fill:none;stroke:#ffffff;stroke-width:1px;stroke-linecap:butt;stroke-linejoin:miter;stroke-opacity:1"
       d="m 179.80715,135.14367 -17.67767,-21.71828 c -3.73742,-2.58496 -8.25133,-4.03138 -12.79507,-4.10001 -4.54374,-0.0686 -9.09927,1.24081 -12.91306,3.71171 -3.81378,2.4709 -6.87067,6.09346 -8.66502,10.26846 -1.79435,4.175 -2.31903,8.88586 -1.48726,13.35335 0.93819,5.03907 3.55766,9.67481 7.00469,13.46828 3.44704,3.79346 7.69895,6.7865 12.18821,9.26015 11.17463,6.15739 24.21736,9.21393 36.87056,7.57615 14.30376,-1.85143 27.55666,-9.69558 36.87057,-20.70813 7.04283,-8.32727 11.87043,-18.24862 17.1726,-27.7792 2.56915,-4.618 5.26422,-9.16594 8.08122,-13.63706 7.21615,-6.034935 15.70587,-10.539682 24.74873,-13.131979 14.92715,-4.279132 30.92319,-3.29214 46.12526,-0.125492 15.20207,3.166648 29.87039,8.441771 44.78847,12.752401 29.80779,8.61306 61.35233,13.3793 91.92388,8.08122 5.90889,-1.02402 11.78725,-2.43037 17.29187,-4.81003 5.50462,-2.37966 10.64444,-5.77257 14.52794,-10.34226 4.32422,-5.088277 6.97438,-11.588106 7.37896,-18.253369 0.40457,-6.665262 -1.44951,-13.457052 -5.23568,-18.957447 -3.78617,-5.500394 -9.48844,-9.666248 -15.8971,-11.542022 -6.40865,-1.875774 -13.47904,-1.435965 -19.58121,1.275669 -6.15507,2.735143 -11.23375,7.722347 -14.3123,13.713042 -3.07855,5.990694 -4.17992,12.936007 -3.36537,19.621992 1.38603,11.376746 8.20882,21.647765 17.17259,28.789345 10.83148,8.62961 24.35915,12.94882 37.37564,17.67767 21.33915,7.75245 42.11889,17.04421 62.12438,27.7792 l 0,0 0,0"
       id="path5188"
       inkscape:path-effect="#path-effect5190"
       inkscape:original-d="m 179.80715,135.14367 -17.67767,-21.71828 c 0,0 -33.33503,14.14214 -35.86041,23.23351 -2.52538,9.09137 0.50507,12.62691 19.1929,22.72843 18.68782,10.10153 23.73858,8.08122 36.87056,7.57615 13.13199,-0.50508 29.29443,-8.08122 36.87057,-20.70813 7.57615,-12.62691 11.61676,-17.67767 17.1726,-27.7792 5.55583,-10.10152 8.08122,-13.63706 8.08122,-13.63706 0,0 -20.70813,-11.61675 24.74873,-13.131979 45.45687,-1.515228 64.64977,4.040611 90.91373,12.626909 26.26397,8.58629 85.35789,10.10152 91.92388,8.08122 6.566,-2.02031 23.23351,6.56599 31.81981,-15.15229 8.5863,-21.718279 -27.7792,-52.022856 -33.33503,-47.477169 -5.55584,4.545686 -21.21321,23.738585 -17.67767,33.335034 3.53553,9.596449 10.10152,23.233505 17.17259,28.789345 7.07107,5.55584 25.75889,12.62691 37.37564,17.67767 11.61676,5.05076 62.12438,27.7792 62.12438,27.7792 l 0,0 0,0"
       inkscape:connector-curvature="0" />
    <path
       style="fill:none;stroke:#ffffff;stroke-width:1px;stroke-linecap:butt;stroke-linejoin:miter;stroke-opacity:1"
       d="m 179.30208,137.66905 c -8.07018,-4.79074 -15.55174,-10.57194 -22.22336,-17.17259 -5.75808,-5.69683 -10.9288,-12.0127 -17.17259,-17.17259 C 125.90224,91.751017 106.96036,86.772544 88.893424,88.676654 73.227938,90.32767 57.979363,97.106387 46.972093,108.37463 c -8.243892,8.43935 -13.899397,19.02724 -21.213203,28.28427 -4.257726,5.38897 -9.215311,10.5716 -11.111678,17.17259 -1.891308,6.58338 -0.318455,13.98302 3.798535,19.45736 4.11699,5.47433 10.616635,8.99764 17.414668,9.83707 8.366804,1.03315 16.990601,-1.91422 23.510271,-7.25882 6.51967,-5.3446 11.006583,-12.93034 13.360297,-21.02545 C 75.86699,144.056 75.332438,132.3925 72.267317,121.5865 69.202195,110.78049 63.692156,100.78233 57.073619,91.707111 51.585007,84.181222 45.310748,77.228664 38.385797,70.998984 33.652225,68.046509 28.760496,65.347624 23.738585,62.917764 19.936669,61.078201 16.060179,59.39277 12.121831,57.867001 l 0,0 0,0"
       id="path5196"
       inkscape:path-effect="#path-effect5198"
       inkscape:original-d="m 179.30208,137.66905 c -17.67767,-8.58629 -19.1929,-11.11168 -22.22336,-17.17259 -3.03046,-6.06092 -8.5863,-8.5863 -17.17259,-17.17259 C 131.31983,94.737569 104.55079,84.130967 88.893424,88.676654 73.23606,93.22234 54.548237,101.30356 46.972093,108.37463 39.395949,115.4457 28.284271,135.64875 25.75889,136.6589 c -2.525381,1.01015 -12.626907,8.5863 -11.111678,17.17259 1.515229,8.5863 12.626907,26.76905 21.213203,29.29443 8.586297,2.52538 39.901026,-11.61676 36.870568,-28.28427 C 69.700526,138.17413 59.093924,99.283256 57.073619,91.707111 55.053314,84.130967 38.385797,70.998984 38.385797,70.998984 c 0,0 -12.626907,-6.565991 -14.647212,-8.08122 C 21.71828,61.402535 12.121831,57.867001 12.121831,57.867001 l 0,0 0,0"
       inkscape:connector-curvature="0" />
    <path
       style="fill:none;stroke:#ffffff;stroke-width:1px;stroke-linecap:butt;stroke-linejoin:miter;stroke-opacity:1"
       d="m 301.02546,143.22489 5.05076,-18.68782"
       id="path5200"
       inkscape:path-effect="#path-effect5202"
       inkscape:original-d="m 301.02546,143.22489 5.05076,-18.68782"
       inkscape:connector-curvature="0" />
    <path
       style="fill:none;stroke:#ffffff;stroke-width:1px;stroke-linecap:butt;stroke-linejoin:miter;stroke-opacity:1"
       d="m 265.67012,133.62844 -18.18275,-1.51523"
       id="path5208"
       inkscape:path-effect="#path-effect5210"
       inkscape:original-d="m 265.67012,133.62844 -18.18275,-1.51523"
       inkscape:connector-curvature="0" />
    <path
       style="fill:none;stroke:#ffffff;stroke-width:1px;stroke-linecap:butt;stroke-linejoin:miter;stroke-opacity:1"
       d="m 187.88837,136.6589 24.74874,-40.406102 -4.04061,-21.213204 0,0"
       id="path5212"
       inkscape:path-effect="#path-effect5214"
       inkscape:original-d="m 187.88837,136.6589 c 10.10153,-6.06092 24.74874,-40.406102 24.74874,-40.406102 l -4.04061,-21.213204 0,0"
       inkscape:connector-curvature="0" />
    <path
       style="fill:none;stroke:#ffffff;stroke-width:1px;stroke-linecap:butt;stroke-linejoin:miter;stroke-opacity:1"
       d="m 213.14219,96.757874 16.66751,-21.71828 13.63706,-12.626906 2.02031,-19.192899 8.08122,-13.131983 5.05076,-12.626907 -2.52538,-9.5964488 2.02031,-7.07106785 0,0"
       id="path5239"
       inkscape:path-effect="#path-effect5241"
       inkscape:original-d="M 213.14219,96.757874 C 229.30463,85.14112 229.8097,75.039594 229.8097,75.039594 l 13.63706,-12.626906 2.02031,-19.192899 8.08122,-13.131983 5.05076,-12.626907 -2.52538,-9.5964488 2.02031,-7.07106785 0,0"
       inkscape:connector-curvature="0" />
    <path
       style="fill:none;stroke:#ffffff;stroke-width:1px;stroke-linecap:butt;stroke-linejoin:miter;stroke-opacity:1"
       d="m 243.44676,62.917764 16.66752,-9.091373"
       id="path5243"
       inkscape:path-effect="#path-effect5245"
       inkscape:original-d="m 243.44676,62.917764 c 16.66752,-9.091373 16.66752,-9.091373 16.66752,-9.091373"
       inkscape:connector-curvature="0" />
    <path
       style="fill:none;stroke:#ffffff;stroke-width:1px;stroke-linecap:butt;stroke-linejoin:miter;stroke-opacity:1"
       d="m 200.0102,116.45585 -7.07106,-12.62691 0.50507,0"
       id="path5247"
       inkscape:path-effect="#path-effect5249"
       inkscape:original-d="m 200.0102,116.45585 c -7.07106,-12.62691 -7.07106,-12.62691 -7.07106,-12.62691 l 0.50507,0"
       inkscape:connector-curvature="0" />
    <path
       style="fill:none;stroke:#ffffff;stroke-width:1px;stroke-linecap:butt;stroke-linejoin:miter;stroke-opacity:1"
       d="m 188.89853,155.34672 -10.60661,18.18275 c -1.17705,2.01781 -2.33406,4.06951 -3.04673,6.29417 -0.71267,2.22465 -0.9687,4.60418 -0.64898,6.91822 0.31972,2.31404 1.2033,4.52977 2.42266,6.5223 1.21935,1.99253 2.76027,3.76544 4.30351,5.51912 l 11.11168,12.62691"
       id="path5251"
       inkscape:path-effect="#path-effect5253"
       inkscape:original-d="m 188.89853,155.34672 -10.60661,18.18275 c 0,0 -8.08122,12.6269 3.03046,25.25381 11.11168,12.62691 11.11168,12.62691 11.11168,12.62691"
       inkscape:connector-curvature="0" />
    <path
       style="fill:none;stroke:#ffffff;stroke-width:1px;stroke-linecap:butt;stroke-linejoin:miter;stroke-opacity:1"
       d="m 189.90868,218.98633 2.52538,-8.08122 22.72843,7.57615 0,0 0,0 0,0"
       id="path5255"
       inkscape:path-effect="#path-effect5257"
       inkscape:original-d="m 189.90868,218.98633 2.52538,-8.08122 22.72843,7.57615 0,0 0,0 0,0"
       inkscape:connector-curvature="0" />
    <path
       style="fill:none;stroke:#ffffff;stroke-width:1px;stroke-linecap:butt;stroke-linejoin:miter;stroke-opacity:1"
       d="m 206.07112,246.26045 9.09137,-28.28427 0,0"
       id="path5259"
       inkscape:path-effect="#path-effect5261"
       inkscape:original-d="m 206.07112,246.26045 9.09137,-28.28427 0,0"
       inkscape:connector-curvature="0" />
    <path
       style="fill:none;stroke:#ffffff;stroke-width:1px;stroke-linecap:butt;stroke-linejoin:miter;stroke-opacity:1"
       d="m 186.37314,141.20459 62.12439,17.67767 45.45686,27.77919 63.13453,14.64721 81.31728,1.51523 c 27.81498,6.04719 55.77295,11.43668 83.84267,16.16244 33.69723,5.6732 67.55552,10.38978 101.52033,14.14214 l 46.97209,-2.02031 0,0"
       id="path5263"
       inkscape:path-effect="#path-effect5265"
       inkscape:original-d="m 186.37314,141.20459 62.12439,17.67767 c 28.78934,2.52538 45.45686,27.77919 45.45686,27.77919 l 63.13453,14.64721 81.31728,1.51523 83.84267,16.16244 101.52033,14.14214 46.97209,-2.02031 0,0"
       inkscape:connector-curvature="0" />
    <path
       style="fill:none;stroke:#ffffff;stroke-width:1px;stroke-linecap:butt;stroke-linejoin:miter;stroke-opacity:1"
       d="m 250.51783,158.88226 45.45687,1.01015"
       id="path5267"
       inkscape:path-effect="#path-effect5269"
       inkscape:original-d="m 250.51783,158.88226 45.45687,1.01015"
       inkscape:connector-curvature="0" />
    <path
       style="fill:none;stroke:#ffffff;stroke-width:1px;stroke-linecap:butt;stroke-linejoin:miter;stroke-opacity:1"
       d="m 436.3859,203.32897 8.5863,23.23351 0,0"
       id="path5271"
       inkscape:path-effect="#path-effect5273"
       inkscape:original-d="m 436.3859,203.32897 c 4.04061,17.67767 8.5863,23.23351 8.5863,23.23351 l 0,0"
       inkscape:connector-curvature="0" />
  </g>
</svg>
